<svg width="589" height="589" viewBox="0 0 589 589" fill="none" xmlns="http://www.w3.org/2000/svg">
<g clip-path="url(#clip0_310_11338)">
<path d="M161.59 182.74C161.59 182.74 164.37 186.801 177.12 189.061C189.87 191.321 199.94 180.61 199.94 180.61C199.94 180.61 204.21 172.63 194.92 171.67C185.63 170.71 171.45 174.36 171.45 174.36C171.45 174.36 168.95 174.681 170.11 169.961C171.27 165.241 141.16 139.34 133.89 123.09C126.62 106.84 110.15 88.8505 115.49 82.8005C120.83 76.7505 120.92 83.5505 129 72.9605C137.08 62.3705 134.44 65.6205 138.15 61.3005C141.86 56.9805 132.73 55.2905 125.37 59.1705C118.01 63.0505 108.19 80.6905 106.2 91.1305C104.21 101.571 121.3 125.76 125.37 131.61C129.44 137.46 161.59 182.74 161.59 182.74Z" stroke="#FF0000" stroke-width="2" stroke-miterlimit="10"/>
<path d="M164.62 208.97C164.62 208.97 158.07 210.72 155.22 208.97C152.37 207.22 142.62 209.79 133.44 205.96C124.26 202.13 59.65 202.28 36.8 219.62C13.95 236.96 40.23 256.75 43.66 243.84C47.09 230.93 52.73 221.52 66.28 218.89C79.83 216.26 128.93 208.06 153.76 224.07C147.13 238.18 166.83 247.49 173.12 247.31C179.41 247.13 173.76 232.07 168.87 230.19C163.98 228.31 164.62 208.98 164.62 208.98V208.97Z" stroke="#FF0000" stroke-width="2" stroke-miterlimit="10"/>
<path d="M172.72 197.13L170.56 205.65C170.56 205.65 183.24 215.57 183.2 220.5C183.16 225.43 179.09 222.71 179.09 222.71V224.8C179.09 224.8 185.2 220.43 186.97 234.1C188.74 247.77 202.4 218.21 204.46 213.39C206.52 208.57 217.77 191.82 219.56 186.47C221.35 181.12 210.87 184.34 208.91 186.47C206.95 188.6 204.69 195.24 200.17 197.64C195.65 200.04 172.72 197.13 172.72 197.13Z" stroke="#FF0000" stroke-width="2" stroke-miterlimit="10"/>
<path d="M198.77 233.74C198.56 232.98 201.8 235.11 206.35 224.78C210.9 214.45 223.34 205.71 223.34 205.71C223.34 205.71 232.92 192 240.62 200.61C248.32 209.22 267.41 219.3 254.55 233.74C241.69 248.18 237.98 269.36 237.98 269.36C237.98 269.36 220.37 270.77 215.57 269.36C210.77 267.95 204.66 263.18 204.66 263.18C204.66 263.18 203.32 258.19 200.4 256.79C197.48 255.39 202.03 245.7 198.78 233.75L198.77 233.74Z" stroke="#FF0000" stroke-width="2" stroke-miterlimit="10"/>
<path d="M277.08 292.99C275.31 289.76 296.45 286.06 296.92 294.62C304.36 292.36 309.34 258.95 321.82 256.77C310.11 231.06 293.63 228.5 269.93 233.79C246.23 239.08 253.16 266.95 255.78 275.95C260.41 275.99 267.12 289.95 277.08 292.99Z" stroke="#FF0000" stroke-width="2" stroke-miterlimit="10"/>
<path d="M314.2 319.42C314.2 319.42 307.4 305.52 330.56 269.98C342.28 261.08 335.8 252.19 346.84 247.64C357.88 243.09 383.93 253.23 377.58 268.58C366.54 276.43 366.56 288.72 366.56 288.72C359.56 288.64 357.45 310.06 347.68 312.43C354.85 321.77 343.23 326.09 337.65 324.68C333.02 324.4 333.4 331 333.4 331C326.98 333.74 317.58 327.02 314.2 319.41V319.42Z" stroke="#FF0000" stroke-width="2" stroke-miterlimit="10"/>
<path d="M347.57 335.9C347.57 335.9 358.23 333.08 362.95 316.89C367.67 300.7 378.7 298.46 382.97 285.09C387.24 271.72 396.86 271.4 398.52 263.17C409.56 260.89 421.89 272.62 421.22 276.97C420.55 281.32 400.24 309.17 396.84 318.49C393.44 327.81 378.53 343.91 378.56 350.4C378.59 356.89 369.36 372.6 354.86 361.69C340.36 350.78 347.39 348.4 347.39 348.4C347.39 348.4 351.01 346.08 347.57 335.92V335.9Z" stroke="#FF0000" stroke-width="2" stroke-miterlimit="10"/>
<path d="M385.74 363.3C385.74 363.3 397.7 355.68 409.13 329.04C420.56 302.4 438.41 289.03 438.41 289.03C444.46 284.52 448.65 290.73 449.66 293C450.67 295.27 457.68 302.68 455.54 306.99C453.4 311.3 436.73 338.72 434.62 350.94C432.51 363.16 413.92 384.97 407.64 386.22C401.36 387.47 396.96 384.25 394.26 382.47C392.88 376.74 386.37 377.95 384.92 375.84C383.47 373.73 387.88 367.56 385.74 363.3Z" stroke="#FF0000" stroke-width="2" stroke-miterlimit="10"/>
<path d="M428.34 390.99C428.34 390.99 427.48 379.58 430.47 376.08C433.46 372.58 444.58 360.54 450.07 348.55C455.56 336.56 465.35 324.01 470.24 320.21C475.13 316.41 476.34 318.05 478.84 320.52C479.83 326.01 487.51 333.46 481.04 342.35C474.57 351.24 468.35 368.01 466.69 376.08C463.09 378.53 459.82 382.64 460.14 385.76C464.6 388.5 467.75 382.41 467.75 382.41C467.8 386.81 473.49 388.26 475 380.82C476.51 373.38 487.24 366.24 491.73 355.58C498.44 352.65 507.64 372.35 507.88 371.32C507.44 360.47 507.19 356.91 507.19 356.91C507.19 356.91 525.19 354.27 519.37 371.57C525.02 377.59 530.21 378.42 532.73 378.21C532.73 383.99 522.88 387.13 521.78 392.9C516.92 393.02 515.32 386.36 508.4 384.61C501.48 382.86 482.89 391.81 476.47 392.04C470.05 392.27 469.37 387.16 466.69 388.87C464.01 390.58 467.19 397.28 473.07 397.38C471.37 399.07 469.96 404.61 468.81 401.64C467.66 398.67 462.16 402.35 461.19 401.3C460.22 400.25 461.81 399.08 459.1 397.28C456.9 401.7 455.64 410.43 453.14 412.46C450.64 414.49 447.83 405.2 446.45 405.95L434.74 412.3L441.11 395.26C441.11 395.26 448.13 397.02 451.65 393.99C445.94 388.7 428.33 391 428.33 391L428.34 390.99Z" stroke="#FF0000" stroke-width="2" stroke-miterlimit="10"/>
<mask id="mask0_310_11338" style="mask-type:luminance" maskUnits="userSpaceOnUse" x="171" y="52" width="355" height="176">
<path d="M525.95 52.8301H171.62V227.2H525.95V52.8301Z" fill="white"/>
</mask>
<g mask="url(#mask0_310_11338)">
<path d="M228.82 162.48C217.65 165.15 187.07 125.57 200.18 109.07C194.23 102.58 190.94 99.0503 190.94 99.0503C190.94 99.0503 169.17 60.8603 173.09 54.8003C177.01 48.7403 192.88 72.8803 193.99 77.8803C195.1 82.8803 202.67 99.4803 208.28 105.99C213.89 112.5 209.26 117.93 209.26 117.93C214.47 123.22 246.56 158.23 228.81 162.48H228.82Z" stroke="#FF0000" stroke-width="2" stroke-miterlimit="10"/>
<path d="M251.51 176.74C257.95 180.69 268.85 194.7 248.01 190.88C233.56 180.31 242.98 162.61 242.98 162.61C242.98 162.61 246.22 173.49 251.52 176.75L251.51 176.74Z" stroke="#FF0000" stroke-width="2" stroke-miterlimit="10"/>
<path d="M274.95 167.36C269.23 167 268.56 165.23 268.56 165.23C268.56 165.23 258.57 114.53 269.81 118.11C274.95 111.38 254.45 77.1604 257.9 75.7504C261.35 74.3404 264.93 73.1104 268.55 77.8804C266.22 83.1404 272.45 87.1504 272.81 88.5304C270.63 91.0504 273.63 98.2804 277.07 99.1804C274.86 102.34 276.67 113.01 279.2 118.35L270.69 124.75C274.87 131.98 274.94 167.35 274.94 167.35L274.95 167.36Z" stroke="#FF0000" stroke-width="2" stroke-miterlimit="10"/>
<path d="M282.4 180.131C282.4 180.131 275.62 175.521 285.67 169.071C295.72 162.621 283.18 163.091 296.86 153.601C310.54 144.111 358.81 113.681 364.68 107.661C370.55 101.641 379.66 103.611 379.34 107.701C379.02 111.791 357.95 127.501 348.22 137.011C338.49 146.521 288.97 173.491 282.39 180.121L282.4 180.131Z" stroke="#FF0000" stroke-width="2" stroke-miterlimit="10"/>
<path d="M281.34 190.79C281.34 190.79 279.85 188.49 283.13 185.86C286.41 183.23 293.35 184.54 302.87 178.88C312.39 173.22 324.67 170.12 327.64 171.59C330.61 173.06 336.7 177.98 365.48 165.2L364.45 171.6C364.45 171.6 380.15 169.8 381.64 175.74C383.13 181.68 356.35 186.42 332.89 187.65C309.43 188.88 295.38 192.17 292.24 193.63C289.1 195.09 281.36 190.79 281.36 190.79H281.34Z" stroke="#FF0000" stroke-width="2" stroke-miterlimit="10"/>
<path d="M332.48 158.93C332.48 158.93 336.97 157.33 347.39 148.25C357.81 139.17 387.87 141.86 387.87 141.86C389.06 138.79 394.23 142.04 395.34 141.6C400.35 139.35 396.7 133.81 376.83 135.69C371.55 135.69 372.46 132.04 375.08 131.2C377.7 130.36 405.03 111.87 427.63 112.24C450.23 112.61 475.26 112.61 482.42 112.24C489.58 111.87 492.13 114.93 485.87 120.55C479.61 126.17 435.75 139.13 419.84 135.47C417.86 140.48 433.39 138.28 434.38 141.64C435.37 145 426.18 153.17 424.09 154.64C422 156.11 378.32 163.02 377.22 163.16C376.12 163.3 376.03 160.12 364.44 161.03C352.85 161.94 338.98 166.08 332.49 158.93H332.48Z" stroke="#FF0000" stroke-width="2" stroke-miterlimit="10"/>
<path d="M424.09 107.69C423.18 107.52 422.32 106.39 424.09 105.61C425.86 104.83 511.55 74.0702 519.94 82.1502C528.33 90.2302 526.82 99.6502 510.28 109.28C501.75 103.32 437.66 110.29 424.08 107.7L424.09 107.69Z" stroke="#FF0000" stroke-width="2" stroke-miterlimit="10"/>
<path d="M306.91 212.1C306.38 211.15 304.43 204.6 306.36 202.66C308.29 200.72 316.66 202.88 320.01 205.66C323.36 208.44 337.54 209.05 352.66 203.29C367.78 197.53 384.72 205.15 390.93 207.74C397.14 210.33 444.56 213.45 460.83 200.88C477.1 188.31 478.91 200.7 502.91 165.24C506.14 160.44 516.91 168.25 511.43 173.76C505.95 179.27 483.05 208.86 434.73 216.37C424.63 217.86 423.45 239.05 385.73 214.24C380.96 211.64 375.91 214.33 375.91 214.33C372.86 209.57 366.72 209.61 364.43 216.37C357.43 213.53 342.77 217.57 336.73 220.63C330.69 223.69 312.66 222.55 306.9 212.11L306.91 212.1Z" stroke="#FF0000" stroke-width="2" stroke-miterlimit="10"/>
</g>
<mask id="mask1_310_11338" style="mask-type:luminance" maskUnits="userSpaceOnUse" x="49" y="187" width="349" height="391">
<path d="M192.139 187.507L49.8816 288.343L254.785 577.418L397.042 476.582L192.139 187.507Z" fill="white"/>
</mask>
<g mask="url(#mask1_310_11338)">
<path d="M172.41 271.591C168.13 260.931 118.16 258.871 112.28 279.111C103.54 278.011 98.76 277.371 98.76 277.371C98.76 277.371 55.02 281.701 52.34 288.401C49.66 295.101 78.54 294.091 83.26 292.111C87.98 290.131 105.9 286.711 114.46 287.511C123.02 288.311 124.77 281.411 124.77 281.411C132.09 282.601 179.22 288.541 172.42 271.601L172.41 271.591Z" stroke="#FF0000" stroke-width="2" stroke-miterlimit="10"/>
<path d="M197.17 281.861C204.12 284.831 221.85 285.621 206.68 270.831C189.7 265.161 180.7 283.071 180.7 283.071C180.7 283.071 191.45 279.421 197.17 281.861Z" stroke="#FF0000" stroke-width="2" stroke-miterlimit="10"/>
<path d="M203.08 306.411C199.48 301.951 197.65 302.431 197.65 302.431C197.65 302.431 150.51 323.601 159.94 330.701C157.42 338.781 117.65 341.851 118.49 345.481C119.33 349.111 120.41 352.741 126.39 352.941C129.34 348.001 136.21 350.761 137.54 350.261C138.33 347.031 145.97 345.291 148.69 347.581C149.99 343.951 159.74 339.261 165.56 338.231C165.67 334.491 165.86 327.581 165.86 327.581C174.17 326.811 203.07 306.411 203.07 306.411H203.08Z" stroke="#FF0000" stroke-width="2" stroke-miterlimit="10"/>
<path d="M217.81 305.101C217.81 305.101 210.13 302.231 210.68 314.161C211.23 326.091 204.36 315.591 204.53 332.241C204.7 348.891 207.79 405.871 206.27 414.141C204.75 422.411 211.63 428.711 214.78 426.081C217.93 423.451 218.56 397.181 220.7 383.741C222.84 370.301 216.2 314.311 217.8 305.111L217.81 305.101Z" stroke="#FF0000" stroke-width="2" stroke-miterlimit="10"/>
<path d="M225.89 298.071C225.89 298.071 223.15 298.191 222.9 302.381C222.65 306.571 227.74 311.481 228.62 322.521C229.5 333.561 234.08 345.371 237 346.941C239.92 348.511 247.45 350.631 253.66 381.511L258.28 376.961C258.28 376.961 265.89 390.801 271.6 388.581C277.31 386.361 265.69 361.771 253.13 341.921C240.57 322.071 235.13 308.711 234.5 305.301C233.87 301.891 225.89 298.061 225.89 298.061V298.071Z" stroke="#FF0000" stroke-width="2" stroke-miterlimit="10"/>
<path d="M229.47 358.221C229.47 358.221 230.76 362.801 229.38 376.561C228 390.311 247.57 413.281 247.57 413.281C245.75 416.021 251.4 418.361 251.68 419.531C252.74 424.911 246.11 425.151 236.15 407.841C233.1 403.531 230.64 406.391 231.48 409.011C232.32 411.631 233.03 444.631 246.4 462.851C259.77 481.071 274.24 501.501 278.08 507.551C281.92 513.601 285.89 513.921 286.85 505.551C287.81 497.181 273.02 453.911 260.84 443.051C263.78 438.541 270.97 452.481 274.28 451.341C277.59 450.201 278.94 437.981 278.93 435.431C278.92 432.881 259.3 393.241 258.78 392.261C258.26 391.281 255.61 393.051 249.65 383.061C243.69 373.081 239.05 359.371 229.46 358.211L229.47 358.221Z" stroke="#FF0000" stroke-width="2" stroke-miterlimit="10"/>
<path d="M240.64 462.591C239.97 461.951 238.55 461.901 238.94 463.801C239.33 465.701 263.78 553.391 275.23 555.571C286.68 557.751 293.49 551.061 291.78 532.001C281.98 528.491 250.61 472.171 240.64 462.591Z" stroke="#FF0000" stroke-width="2" stroke-miterlimit="10"/>
<path d="M258.06 306.611C256.98 306.731 250.5 308.921 250.04 311.631C249.58 314.341 256.17 319.901 260.38 321.031C264.59 322.161 273.29 333.371 277.33 349.041C281.37 364.711 297.39 374.121 303.09 377.691C308.79 381.261 338.76 418.141 337.91 438.681C337.06 459.221 348.22 453.531 333.17 493.621C331.12 499.031 343.72 503.301 345.05 495.641C346.38 487.981 357.27 452.191 335.46 408.431C330.83 399.331 347.44 386.111 305.39 369.691C300.51 367.301 299.79 361.621 299.79 361.621C294.14 361.891 290.62 356.851 294.81 351.071C288.44 347.001 283.26 332.701 282.27 326.011C281.28 319.321 269.92 305.271 258.07 306.611H258.06Z" stroke="#FF0000" stroke-width="2" stroke-miterlimit="10"/>
</g>
</g>
<defs>
<clipPath id="clip0_310_11338">
<rect width="589" height="589" fill="white"/>
</clipPath>
</defs>
</svg>
